<mxfile host="app.diagrams.net" modified="2020-11-01T01:32:33.239Z" agent="5.0 (Windows NT 10.0; Win64; x64) AppleWebKit/537.36 (KHTML, like Gecko) Chrome/86.0.4240.111 Safari/537.36" etag="Rv_ecvXe08asu3QvGKZI" version="13.8.3" type="github">
  <diagram id="Q-IdT2M_9BCiVnZ2GyN9" name="Page-1">
    <mxGraphModel dx="1287" dy="1921" grid="1" gridSize="10" guides="1" tooltips="1" connect="1" arrows="1" fold="1" page="1" pageScale="1" pageWidth="827" pageHeight="1169" math="0" shadow="0">
      <root>
        <mxCell id="0" />
        <mxCell id="1" parent="0" />
        <mxCell id="mp5SHMtN5X2dqjKIVrWn-1" value="" style="rounded=1;whiteSpace=wrap;html=1;shadow=0;sketch=0;strokeWidth=1;fillColor=#f9f7ed;strokeColor=#36393d;" vertex="1" parent="1">
          <mxGeometry x="50" y="-72.5" width="160" height="82.5" as="geometry" />
        </mxCell>
        <mxCell id="mp5SHMtN5X2dqjKIVrWn-2" value="&lt;font style=&quot;font-size: 16px&quot;&gt;A 线程&amp;nbsp;&amp;nbsp;&lt;/font&gt;" style="rounded=0;whiteSpace=wrap;html=1;shadow=0;sketch=0;strokeWidth=1;fillColor=#cce5ff;strokeColor=#36393d;" vertex="1" parent="1">
          <mxGeometry x="69.66" y="-60" width="120" height="60" as="geometry" />
        </mxCell>
        <mxCell id="mp5SHMtN5X2dqjKIVrWn-3" value="" style="rounded=1;whiteSpace=wrap;html=1;shadow=0;sketch=0;strokeWidth=1;fillColor=#f9f7ed;strokeColor=#36393d;" vertex="1" parent="1">
          <mxGeometry x="123.56321839080458" y="226" width="335.0574712643678" height="84" as="geometry" />
        </mxCell>
        <mxCell id="mp5SHMtN5X2dqjKIVrWn-4" value="" style="rounded=1;whiteSpace=wrap;html=1;shadow=0;sketch=0;strokeWidth=1;fillColor=#f9f7ed;strokeColor=#36393d;" vertex="1" parent="1">
          <mxGeometry x="330.69" y="70" width="219.31" height="80" as="geometry" />
        </mxCell>
        <mxCell id="mp5SHMtN5X2dqjKIVrWn-5" value="" style="rounded=1;whiteSpace=wrap;html=1;shadow=0;sketch=0;strokeWidth=1;fillColor=#f9f7ed;strokeColor=#36393d;" vertex="1" parent="1">
          <mxGeometry x="20" y="70" width="220" height="80" as="geometry" />
        </mxCell>
        <mxCell id="mp5SHMtN5X2dqjKIVrWn-7" value="" style="rounded=0;whiteSpace=wrap;html=1;strokeWidth=1;" vertex="1" parent="1">
          <mxGeometry x="147.9310344827586" y="244" width="24.36781609195402" height="24" as="geometry" />
        </mxCell>
        <mxCell id="mp5SHMtN5X2dqjKIVrWn-9" value="" style="rounded=0;whiteSpace=wrap;html=1;strokeWidth=1;" vertex="1" parent="1">
          <mxGeometry x="172.29885057471262" y="244" width="24.36781609195402" height="24" as="geometry" />
        </mxCell>
        <mxCell id="mp5SHMtN5X2dqjKIVrWn-10" value="" style="rounded=0;whiteSpace=wrap;html=1;strokeWidth=1;" vertex="1" parent="1">
          <mxGeometry x="196.66666666666663" y="244" width="24.36781609195402" height="24" as="geometry" />
        </mxCell>
        <mxCell id="mp5SHMtN5X2dqjKIVrWn-11" value="A" style="rounded=0;whiteSpace=wrap;html=1;strokeWidth=1;fillColor=#cce5ff;strokeColor=#36393d;fontSize=16;" vertex="1" parent="1">
          <mxGeometry x="221.03448275862064" y="244" width="24.36781609195402" height="24" as="geometry" />
        </mxCell>
        <mxCell id="mp5SHMtN5X2dqjKIVrWn-12" value="B" style="rounded=0;whiteSpace=wrap;html=1;strokeWidth=1;fillColor=#ffff88;strokeColor=#36393d;fontSize=16;" vertex="1" parent="1">
          <mxGeometry x="245.40229885057468" y="244" width="24.36781609195402" height="24" as="geometry" />
        </mxCell>
        <mxCell id="mp5SHMtN5X2dqjKIVrWn-13" value="" style="rounded=0;whiteSpace=wrap;html=1;strokeWidth=1;" vertex="1" parent="1">
          <mxGeometry x="294.13793103448273" y="244" width="24.36781609195402" height="24" as="geometry" />
        </mxCell>
        <mxCell id="mp5SHMtN5X2dqjKIVrWn-14" value="" style="rounded=0;whiteSpace=wrap;html=1;strokeWidth=1;" vertex="1" parent="1">
          <mxGeometry x="269.7701149425287" y="244" width="24.36781609195402" height="24" as="geometry" />
        </mxCell>
        <mxCell id="mp5SHMtN5X2dqjKIVrWn-15" value="" style="rounded=0;whiteSpace=wrap;html=1;strokeWidth=1;sketch=0;shadow=0;" vertex="1" parent="1">
          <mxGeometry x="318.50574712643675" y="244" width="24.36781609195402" height="24" as="geometry" />
        </mxCell>
        <mxCell id="mp5SHMtN5X2dqjKIVrWn-16" value="" style="rounded=0;whiteSpace=wrap;html=1;strokeWidth=1;" vertex="1" parent="1">
          <mxGeometry x="342.87356321839076" y="244" width="24.36781609195402" height="24" as="geometry" />
        </mxCell>
        <mxCell id="mp5SHMtN5X2dqjKIVrWn-17" value="" style="rounded=0;whiteSpace=wrap;html=1;strokeWidth=1;" vertex="1" parent="1">
          <mxGeometry x="367.24137931034477" y="244" width="24.36781609195402" height="24" as="geometry" />
        </mxCell>
        <mxCell id="mp5SHMtN5X2dqjKIVrWn-18" value="" style="rounded=0;whiteSpace=wrap;html=1;" vertex="1" parent="1">
          <mxGeometry x="147.9310344827586" y="268" width="24.36781609195402" height="24" as="geometry" />
        </mxCell>
        <mxCell id="mp5SHMtN5X2dqjKIVrWn-19" value="" style="rounded=0;whiteSpace=wrap;html=1;" vertex="1" parent="1">
          <mxGeometry x="172.29885057471262" y="268" width="24.36781609195402" height="24" as="geometry" />
        </mxCell>
        <mxCell id="mp5SHMtN5X2dqjKIVrWn-20" value="" style="rounded=0;whiteSpace=wrap;html=1;" vertex="1" parent="1">
          <mxGeometry x="196.66666666666663" y="268" width="24.36781609195402" height="24" as="geometry" />
        </mxCell>
        <mxCell id="mp5SHMtN5X2dqjKIVrWn-21" value="" style="rounded=0;whiteSpace=wrap;html=1;" vertex="1" parent="1">
          <mxGeometry x="221.03448275862064" y="268" width="24.36781609195402" height="24" as="geometry" />
        </mxCell>
        <mxCell id="mp5SHMtN5X2dqjKIVrWn-22" value="" style="rounded=0;whiteSpace=wrap;html=1;" vertex="1" parent="1">
          <mxGeometry x="245.40229885057468" y="268" width="24.36781609195402" height="24" as="geometry" />
        </mxCell>
        <mxCell id="mp5SHMtN5X2dqjKIVrWn-23" value="" style="rounded=0;whiteSpace=wrap;html=1;" vertex="1" parent="1">
          <mxGeometry x="294.13793103448273" y="268" width="24.36781609195402" height="24" as="geometry" />
        </mxCell>
        <mxCell id="mp5SHMtN5X2dqjKIVrWn-24" value="" style="rounded=0;whiteSpace=wrap;html=1;" vertex="1" parent="1">
          <mxGeometry x="269.7701149425287" y="268" width="24.36781609195402" height="24" as="geometry" />
        </mxCell>
        <mxCell id="mp5SHMtN5X2dqjKIVrWn-25" value="" style="rounded=0;whiteSpace=wrap;html=1;" vertex="1" parent="1">
          <mxGeometry x="318.50574712643675" y="268" width="24.36781609195402" height="24" as="geometry" />
        </mxCell>
        <mxCell id="mp5SHMtN5X2dqjKIVrWn-26" value="" style="rounded=0;whiteSpace=wrap;html=1;" vertex="1" parent="1">
          <mxGeometry x="342.87356321839076" y="268" width="24.36781609195402" height="24" as="geometry" />
        </mxCell>
        <mxCell id="mp5SHMtN5X2dqjKIVrWn-27" value="" style="rounded=0;whiteSpace=wrap;html=1;" vertex="1" parent="1">
          <mxGeometry x="367.24137931034477" y="268" width="24.36781609195402" height="24" as="geometry" />
        </mxCell>
        <mxCell id="mp5SHMtN5X2dqjKIVrWn-28" value="" style="rounded=0;whiteSpace=wrap;html=1;fontSize=16;" vertex="1" parent="1">
          <mxGeometry x="32.183908045977006" y="100" width="24.36781609195402" height="24" as="geometry" />
        </mxCell>
        <mxCell id="mp5SHMtN5X2dqjKIVrWn-29" value="" style="rounded=0;whiteSpace=wrap;html=1;fontSize=16;" vertex="1" parent="1">
          <mxGeometry x="56.55172413793103" y="100" width="24.36781609195402" height="24" as="geometry" />
        </mxCell>
        <mxCell id="mp5SHMtN5X2dqjKIVrWn-30" value="" style="rounded=0;whiteSpace=wrap;html=1;" vertex="1" parent="1">
          <mxGeometry x="80.91954022988504" y="100" width="24.36781609195402" height="24" as="geometry" />
        </mxCell>
        <mxCell id="mp5SHMtN5X2dqjKIVrWn-31" value="" style="rounded=0;whiteSpace=wrap;html=1;" vertex="1" parent="1">
          <mxGeometry x="105.28735632183908" y="100" width="24.36781609195402" height="24" as="geometry" />
        </mxCell>
        <mxCell id="mp5SHMtN5X2dqjKIVrWn-32" value="" style="rounded=0;whiteSpace=wrap;html=1;" vertex="1" parent="1">
          <mxGeometry x="129.65517241379308" y="100" width="24.36781609195402" height="24" as="geometry" />
        </mxCell>
        <mxCell id="mp5SHMtN5X2dqjKIVrWn-33" value="" style="rounded=0;whiteSpace=wrap;html=1;" vertex="1" parent="1">
          <mxGeometry x="178.39080459770113" y="100" width="24.36781609195402" height="24" as="geometry" />
        </mxCell>
        <mxCell id="mp5SHMtN5X2dqjKIVrWn-34" value="" style="rounded=0;whiteSpace=wrap;html=1;" vertex="1" parent="1">
          <mxGeometry x="154.02298850574712" y="100" width="24.36781609195402" height="24" as="geometry" />
        </mxCell>
        <mxCell id="mp5SHMtN5X2dqjKIVrWn-35" value="" style="rounded=0;whiteSpace=wrap;html=1;" vertex="1" parent="1">
          <mxGeometry x="202.75862068965515" y="100" width="24.36781609195402" height="24" as="geometry" />
        </mxCell>
        <mxCell id="mp5SHMtN5X2dqjKIVrWn-36" value="" style="rounded=0;whiteSpace=wrap;html=1;fontSize=16;" vertex="1" parent="1">
          <mxGeometry x="342.87356321839076" y="100" width="24.36781609195402" height="24" as="geometry" />
        </mxCell>
        <mxCell id="mp5SHMtN5X2dqjKIVrWn-37" value="" style="rounded=0;whiteSpace=wrap;html=1;fontSize=16;" vertex="1" parent="1">
          <mxGeometry x="367.24137931034477" y="100" width="24.36781609195402" height="24" as="geometry" />
        </mxCell>
        <mxCell id="mp5SHMtN5X2dqjKIVrWn-38" value="" style="rounded=0;whiteSpace=wrap;html=1;" vertex="1" parent="1">
          <mxGeometry x="391.60919540229884" y="100" width="24.36781609195402" height="24" as="geometry" />
        </mxCell>
        <mxCell id="mp5SHMtN5X2dqjKIVrWn-39" value="" style="rounded=0;whiteSpace=wrap;html=1;" vertex="1" parent="1">
          <mxGeometry x="415.9770114942528" y="100" width="24.36781609195402" height="24" as="geometry" />
        </mxCell>
        <mxCell id="mp5SHMtN5X2dqjKIVrWn-40" value="" style="rounded=0;whiteSpace=wrap;html=1;" vertex="1" parent="1">
          <mxGeometry x="440.34482758620686" y="100" width="24.36781609195402" height="24" as="geometry" />
        </mxCell>
        <mxCell id="mp5SHMtN5X2dqjKIVrWn-41" value="" style="rounded=0;whiteSpace=wrap;html=1;" vertex="1" parent="1">
          <mxGeometry x="489.08045977011494" y="100" width="24.36781609195402" height="24" as="geometry" />
        </mxCell>
        <mxCell id="mp5SHMtN5X2dqjKIVrWn-42" value="" style="rounded=0;whiteSpace=wrap;html=1;" vertex="1" parent="1">
          <mxGeometry x="464.7126436781609" y="100" width="24.36781609195402" height="24" as="geometry" />
        </mxCell>
        <mxCell id="mp5SHMtN5X2dqjKIVrWn-43" value="" style="rounded=0;whiteSpace=wrap;html=1;" vertex="1" parent="1">
          <mxGeometry x="513.4482758620688" y="100" width="24.36781609195402" height="24" as="geometry" />
        </mxCell>
        <mxCell id="mp5SHMtN5X2dqjKIVrWn-44" value="" style="rounded=0;whiteSpace=wrap;html=1;strokeWidth=1;" vertex="1" parent="1">
          <mxGeometry x="391.60919540229884" y="244" width="24.36781609195402" height="24" as="geometry" />
        </mxCell>
        <mxCell id="mp5SHMtN5X2dqjKIVrWn-45" value="" style="rounded=0;whiteSpace=wrap;html=1;" vertex="1" parent="1">
          <mxGeometry x="391.60919540229884" y="268" width="24.36781609195402" height="24" as="geometry" />
        </mxCell>
        <mxCell id="mp5SHMtN5X2dqjKIVrWn-46" value="" style="rounded=0;whiteSpace=wrap;html=1;" vertex="1" parent="1">
          <mxGeometry x="415.9770114942528" y="244" width="24.36781609195402" height="24" as="geometry" />
        </mxCell>
        <mxCell id="mp5SHMtN5X2dqjKIVrWn-47" value="" style="rounded=0;whiteSpace=wrap;html=1;" vertex="1" parent="1">
          <mxGeometry x="415.9770114942528" y="268" width="24.36781609195402" height="24" as="geometry" />
        </mxCell>
        <mxCell id="mp5SHMtN5X2dqjKIVrWn-48" value="CPU 核心 1" style="text;html=1;align=center;verticalAlign=middle;resizable=0;points=[];autosize=1;fontSize=18;fontStyle=1" vertex="1" parent="1">
          <mxGeometry x="74.66" y="-105" width="110" height="30" as="geometry" />
        </mxCell>
        <mxCell id="mp5SHMtN5X2dqjKIVrWn-49" value="" style="rounded=1;whiteSpace=wrap;html=1;shadow=0;sketch=0;strokeWidth=1;fillColor=#f9f7ed;strokeColor=#36393d;" vertex="1" parent="1">
          <mxGeometry x="360.34000000000003" y="-72.5" width="160" height="82.5" as="geometry" />
        </mxCell>
        <mxCell id="mp5SHMtN5X2dqjKIVrWn-51" value="&lt;font style=&quot;font-size: 16px&quot;&gt;B 线程&amp;nbsp;&amp;nbsp;&lt;/font&gt;" style="rounded=0;whiteSpace=wrap;html=1;shadow=0;sketch=0;strokeWidth=1;fillColor=#ffff88;strokeColor=#36393d;" vertex="1" parent="1">
          <mxGeometry x="380" y="-60" width="122.18" height="60" as="geometry" />
        </mxCell>
        <mxCell id="mp5SHMtN5X2dqjKIVrWn-52" value="CPU 核心 2" style="text;html=1;align=center;verticalAlign=middle;resizable=0;points=[];autosize=1;fontSize=18;fontStyle=1" vertex="1" parent="1">
          <mxGeometry x="385.00000000000006" y="-105" width="110" height="30" as="geometry" />
        </mxCell>
        <mxCell id="mp5SHMtN5X2dqjKIVrWn-53" value="Cache Line" style="text;html=1;align=center;verticalAlign=middle;resizable=0;points=[];autosize=1;fontSize=18;fontStyle=1" vertex="1" parent="1">
          <mxGeometry x="386.09" y="121" width="110" height="30" as="geometry" />
        </mxCell>
        <mxCell id="mp5SHMtN5X2dqjKIVrWn-54" value="Cache Line" style="text;html=1;align=center;verticalAlign=middle;resizable=0;points=[];autosize=1;fontSize=18;fontStyle=1" vertex="1" parent="1">
          <mxGeometry x="74.66000000000003" y="121" width="110" height="30" as="geometry" />
        </mxCell>
        <mxCell id="mp5SHMtN5X2dqjKIVrWn-56" value="内存" style="text;html=1;align=center;verticalAlign=middle;resizable=0;points=[];autosize=1;fontSize=18;fontStyle=1" vertex="1" parent="1">
          <mxGeometry x="269.77000000000004" y="310" width="50" height="30" as="geometry" />
        </mxCell>
        <mxCell id="mp5SHMtN5X2dqjKIVrWn-57" value="Cache" style="text;html=1;align=center;verticalAlign=middle;resizable=0;points=[];autosize=1;fontSize=18;fontStyle=1" vertex="1" parent="1">
          <mxGeometry x="-60" y="97" width="70" height="30" as="geometry" />
        </mxCell>
        <mxCell id="mp5SHMtN5X2dqjKIVrWn-58" value="Cache" style="text;html=1;align=center;verticalAlign=middle;resizable=0;points=[];autosize=1;fontSize=18;fontStyle=1" vertex="1" parent="1">
          <mxGeometry x="560" y="94" width="70" height="30" as="geometry" />
        </mxCell>
      </root>
    </mxGraphModel>
  </diagram>
</mxfile>
